<svg id="flip" xmlns="http://www.w3.org/2000/svg" width="25.041" height="26.711" viewBox="0 0 25.041 26.711">
  <path id="Path_120" data-name="Path 120" d="M0,21.627,10.017,13.28,0,5.1Z" transform="translate(0 3.414)" fill="#27333f"/>
  <path id="Path_121" data-name="Path 121" d="M9,13.514l10.017,8.18V5Zm8.347,4.674-5.676-4.674,5.676-5.008Z" transform="translate(6.025 3.347)" fill="#27333f"/>
  <path id="Path_122" data-name="Path 122" d="M7,5H8.669V6.669H7Z" transform="translate(4.686 3.347)" fill="#27333f"/>
  <path id="Path_123" data-name="Path 123" d="M7,3H8.669V4.669H7Z" transform="translate(4.686 2.008)" fill="#27333f"/>
  <path id="Path_124" data-name="Path 124" d="M7,7H8.669V8.669H7Z" transform="translate(4.686 4.686)" fill="#27333f"/>
  <path id="Path_125" data-name="Path 125" d="M7,9H8.669v1.669H7Z" transform="translate(4.686 6.025)" fill="#27333f"/>
  <path id="Path_126" data-name="Path 126" d="M7,11H8.669v1.669H7Z" transform="translate(4.686 7.364)" fill="#27333f"/>
  <path id="Path_127" data-name="Path 127" d="M7,13H8.669v1.669H7Z" transform="translate(4.686 8.703)" fill="#27333f"/>
  <path id="Path_128" data-name="Path 128" d="M7,15H8.669v1.669H7Z" transform="translate(4.686 10.042)" fill="#27333f"/>
  <path id="Path_129" data-name="Path 129" d="M10.78,1.669h0a8.031,8.031,0,0,1,6.01,3.172L14.954,6.678h5.008V1.669l-2,2A9.519,9.519,0,0,0,10.78,0h0C7.608,0,4.77,1.669,2.6,4.841l1.336,1C5.772,3.172,8.109,1.669,10.78,1.669Z" transform="translate(1.741)" fill="#27333f"/>
</svg>
