<svg xmlns="http://www.w3.org/2000/svg" width="26.013" height="26.013" viewBox="0 0 26.013 26.013">
  <g id="refresh" transform="translate(0 0)">
    <path id="Path_118" data-name="Path 118" d="M3.124,14.206a10.292,10.292,0,0,1-.076-1.2A9.916,9.916,0,0,1,19.687,5.675l-.879.894a.779.779,0,0,0-.2.762.8.8,0,0,0,.579.518c.153.031,5.193,1.655,4.872,1.59a.771.771,0,0,0,.9-.9c-.031-.154-1.147-5.752-1.082-5.431a.755.755,0,0,0-1.28-.381l-.747.732A13.015,13.015,0,0,0,0,13.006v.03c0,.43.02.762.042,1.016a.762.762,0,0,0,.61.679l1.566.313a.763.763,0,0,0,.906-.838Zm0,0" transform="translate(0.001 0)" fill="#27333f"/>
    <path id="Path_119" data-name="Path 119" d="M44.771,215.757l-1.57-.32a.763.763,0,0,0-.909.839,10.374,10.374,0,0,1,.079,1.207A9.9,9.9,0,0,1,25.732,224.8l.879-.879a.779.779,0,0,0,.2-.762.8.8,0,0,0-.579-.518c-.153-.031-5.193-1.655-4.872-1.59a.747.747,0,0,0-.686.213.759.759,0,0,0-.214.686l1.082,5.38a.763.763,0,0,0,.533.579.732.732,0,0,0,.747-.2l.732-.732a12.987,12.987,0,0,0,21.867-9.5v-.046c0-.338-.012-.669-.04-1a.762.762,0,0,0-.607-.681Zm0,0" transform="translate(-19.406 -204.476)" fill="#27333f"/>
  </g>
</svg>
