<svg xmlns="http://www.w3.org/2000/svg" width="26.538" height="26.487" viewBox="0 0 26.538 26.487">
  <g id="resize" transform="translate(0 0)">
    <g id="Group_117" data-name="Group 117" transform="translate(14.693 24.417)">
      <g id="Group_116" data-name="Group 116">
        <rect id="Rectangle_4328" data-name="Rectangle 4328" width="4.655" height="2.069" fill="#27333f"/>
      </g>
    </g>
    <g id="Group_119" data-name="Group 119" transform="translate(22.294 22.294)">
      <g id="Group_118" data-name="Group 118">
        <path id="Path_114" data-name="Path 114" d="M432.247,430.621v1.035h0a1.09,1.09,0,0,1-1.088,1.089h-1.035v2.069h1.035a3.161,3.161,0,0,0,3.158-3.158v-1.035Z" transform="translate(-430.124 -430.621)" fill="#27333f"/>
      </g>
    </g>
    <g id="Group_121" data-name="Group 121" transform="translate(7.143 0)">
      <g id="Group_120" data-name="Group 120" transform="translate(0 0)">
        <rect id="Rectangle_4329" data-name="Rectangle 4329" width="4.655" height="2.069" fill="#27333f"/>
      </g>
    </g>
    <g id="Group_123" data-name="Group 123" transform="translate(14.693 0)">
      <g id="Group_122" data-name="Group 122" transform="translate(0 0)">
        <rect id="Rectangle_4330" data-name="Rectangle 4330" width="4.655" height="2.069" fill="#27333f"/>
      </g>
    </g>
    <g id="Group_125" data-name="Group 125" transform="translate(0.002 0)">
      <g id="Group_124" data-name="Group 124" transform="translate(0 0)">
        <path id="Path_115" data-name="Path 115" d="M3.2.5A3.161,3.161,0,0,0,.043,3.655V4.689H2.112V3.655A1.09,1.09,0,0,1,3.2,2.566H4.235V.5Z" transform="translate(-0.043 -0.497)" fill="#27333f"/>
      </g>
    </g>
    <g id="Group_127" data-name="Group 127" transform="translate(22.294 0)">
      <g id="Group_126" data-name="Group 126" transform="translate(0 0)">
        <path id="Path_116" data-name="Path 116" d="M431.159.5h-1.035V2.566h1.035a1.09,1.09,0,0,1,1.088,1.088V4.689h2.069V3.655A3.161,3.161,0,0,0,431.159.5Z" transform="translate(-430.124 -0.497)" fill="#27333f"/>
      </g>
    </g>
    <g id="Group_129" data-name="Group 129" transform="translate(0 7.399)">
      <g id="Group_128" data-name="Group 128">
        <rect id="Rectangle_4331" data-name="Rectangle 4331" width="2.069" height="4.655" fill="#27333f"/>
      </g>
    </g>
    <g id="Group_131" data-name="Group 131" transform="translate(24.469 14.949)">
      <g id="Group_130" data-name="Group 130">
        <rect id="Rectangle_4332" data-name="Rectangle 4332" width="2.069" height="4.655" fill="#27333f"/>
      </g>
    </g>
    <g id="Group_133" data-name="Group 133" transform="translate(24.469 7.399)">
      <g id="Group_132" data-name="Group 132">
        <rect id="Rectangle_4333" data-name="Rectangle 4333" width="2.069" height="4.655" fill="#27333f"/>
      </g>
    </g>
    <g id="Group_135" data-name="Group 135" transform="translate(0.002 5.33)">
      <g id="Group_134" data-name="Group 134">
        <path id="Path_117" data-name="Path 117" d="M13.751,103.332V105.4h4.042l-6.822,7.128a3.085,3.085,0,0,0-1.616-.455H3.147a3.107,3.107,0,0,0-3.1,3.1v6.207a3.107,3.107,0,0,0,3.1,3.1H9.354a3.107,3.107,0,0,0,3.1-3.1v-6.207a3.09,3.09,0,0,0-.175-1.027l6.9-7.209v3.891h2.069v-7.5Zm-3.362,18.053a1.036,1.036,0,0,1-1.035,1.035H3.147a1.036,1.036,0,0,1-1.035-1.035v-6.207a1.036,1.036,0,0,1,1.035-1.035H9.354a1.036,1.036,0,0,1,1.035,1.035Z" transform="translate(-0.043 -103.332)" fill="#27333f"/>
      </g>
    </g>
  </g>
</svg>
