<svg id="text" xmlns="http://www.w3.org/2000/svg" width="26.487" height="26.487" viewBox="0 0 26.487 26.487">
  <path id="Path_112" data-name="Path 112" d="M135.05,144.852H136.6v-1.3h3.929v8.838h-1.345v1.552h4.242V152.39h-1.345v-8.838h3.929v1.3h1.552V142H135.05Z" transform="translate(-128.064 -134.654)" fill="#096cfe"/>
  <path id="Path_113" data-name="Path 113" d="M24.637,20.745v-15a2.983,2.983,0,1,0-3.893-3.893h-15A2.983,2.983,0,1,0,1.849,5.742v15a2.983,2.983,0,1,0,3.893,3.893h15a2.983,2.983,0,1,0,3.893-3.893ZM20.55,23.085H5.936A2.989,2.989,0,0,0,3.4,20.55V5.936A2.989,2.989,0,0,0,5.936,3.4H20.55a2.989,2.989,0,0,0,2.535,2.535V20.55a2.989,2.989,0,0,0-2.535,2.535ZM23.5,1.552a1.431,1.431,0,1,1-1.431,1.431A1.433,1.433,0,0,1,23.5,1.552Zm-20.52,0A1.431,1.431,0,1,1,1.552,2.983,1.433,1.433,0,0,1,2.983,1.552Zm0,23.383A1.431,1.431,0,1,1,4.414,23.5,1.433,1.433,0,0,1,2.983,24.935Zm20.52,0A1.431,1.431,0,1,1,24.935,23.5,1.433,1.433,0,0,1,23.5,24.935Z" transform="translate(0 0)" fill="#096cfe"/>
</svg>
